<svg width="59" height="58" viewBox="0 0 59 58" fill="none" xmlns="http://www.w3.org/2000/svg">
<g filter="url(#filter0_d_202_213)">
<rect x="5.5" y="1" width="48" height="48" rx="24" fill="url(#paint0_linear_202_213)" shape-rendering="crispEdges"/>
<rect x="6.5" y="2" width="46" height="46" rx="23" stroke="white" stroke-opacity="0.3" stroke-width="2" shape-rendering="crispEdges"/>
<path d="M24.42 33V30.94L28.46 26.72C29.26 25.88 29.8733 25.2133 30.3 24.72C30.74 24.2133 31.0467 23.78 31.22 23.42C31.3933 23.06 31.48 22.6933 31.48 22.32C31.48 21.6933 31.28 21.2 30.88 20.84C30.4933 20.48 29.9933 20.3 29.38 20.3C28.74 20.3 28.1867 20.4867 27.72 20.86C27.2533 21.22 26.9133 21.7533 26.7 22.46L24.32 21.72C24.48 20.9333 24.8067 20.2533 25.3 19.68C25.7933 19.0933 26.3933 18.6467 27.1 18.34C27.82 18.02 28.58 17.86 29.38 17.86C30.34 17.86 31.18 18.0333 31.9 18.38C32.6333 18.7267 33.2 19.2133 33.6 19.84C34.0133 20.4667 34.22 21.2 34.22 22.04C34.22 22.5733 34.12 23.1 33.92 23.62C33.72 24.14 33.42 24.6733 33.02 25.22C32.62 25.7533 32.1 26.3533 31.46 27.02L27.96 30.7H34.42V33H24.42Z" fill="white"/>
</g>
<defs>
<filter id="filter0_d_202_213" x="0.5" y="0" width="58" height="58" filterUnits="userSpaceOnUse" color-interpolation-filters="sRGB">
<feFlood flood-opacity="0" result="BackgroundImageFix"/>
<feColorMatrix in="SourceAlpha" type="matrix" values="0 0 0 0 0 0 0 0 0 0 0 0 0 0 0 0 0 0 127 0" result="hardAlpha"/>
<feOffset dy="4"/>
<feGaussianBlur stdDeviation="2.5"/>
<feComposite in2="hardAlpha" operator="out"/>
<feColorMatrix type="matrix" values="0 0 0 0 0 0 0 0 0 0 0 0 0 0 0 0 0 0 0.1 0"/>
<feBlend mode="normal" in2="BackgroundImageFix" result="effect1_dropShadow_202_213"/>
<feBlend mode="normal" in="SourceGraphic" in2="effect1_dropShadow_202_213" result="shape"/>
</filter>
<linearGradient id="paint0_linear_202_213" x1="29.5" y1="1" x2="29.5" y2="49" gradientUnits="userSpaceOnUse">
<stop stop-color="#344A99"/>
<stop offset="1" stop-color="#567BFF"/>
</linearGradient>
</defs>
</svg>
