<svg width="52" height="52" viewBox="0 0 52 52" fill="none" xmlns="http://www.w3.org/2000/svg">
<rect x="0.5" y="0.5" width="51" height="51" rx="7.5" fill="#8EA7FF" fill-opacity="0.2"/>
<rect x="0.5" y="0.5" width="51" height="51" rx="7.5" stroke="url(#paint0_linear_19_1800)"/>
<path d="M31 25.8045C31 25.4588 31 25.286 31.052 25.132C31.2032 24.6844 31.6018 24.5108 32.0011 24.3289C32.45 24.1244 32.6744 24.0222 32.8968 24.0042C33.1493 23.9838 33.4022 24.0382 33.618 24.1593C33.9041 24.3198 34.1036 24.6249 34.3079 24.873C35.2513 26.0188 35.7229 26.5918 35.8955 27.2236C36.0348 27.7334 36.0348 28.2666 35.8955 28.7764C35.6438 29.6979 34.8485 30.4704 34.2598 31.1854C33.9587 31.5511 33.8081 31.734 33.618 31.8407C33.4022 31.9618 33.1493 32.0162 32.8968 31.9958C32.6744 31.9778 32.45 31.8756 32.0011 31.6711C31.6018 31.4892 31.2032 31.3156 31.052 30.868C31 30.714 31 30.5412 31 30.1955V25.8045Z" stroke="#567BFF" stroke-width="1.5"/>
<path d="M21 25.8046C21 25.3694 20.9878 24.9782 20.6359 24.6722C20.5079 24.5609 20.3382 24.4836 19.9989 24.329C19.55 24.1246 19.3256 24.0224 19.1032 24.0044C18.4359 23.9504 18.0769 24.4058 17.6921 24.8732C16.7488 26.019 16.2771 26.5919 16.1045 27.2237C15.9652 27.7336 15.9652 28.2668 16.1045 28.7766C16.3562 29.6981 17.1515 30.4705 17.7402 31.1856C18.1113 31.6363 18.4658 32.0475 19.1032 31.996C19.3256 31.978 19.55 31.8757 19.9989 31.6713C20.3382 31.5167 20.5079 31.4394 20.6359 31.3281C20.9878 31.0221 21 30.631 21 30.1957V25.8046Z" stroke="#567BFF" stroke-width="1.5"/>
<path d="M34 24.5V23C34 19.134 30.4183 16 26 16C21.5817 16 18 19.134 18 23V24.5" stroke="#567BFF" stroke-width="1.5" stroke-linecap="round" stroke-linejoin="round"/>
<path d="M34 31.5C34 36 30 36 26 36" stroke="#567BFF" stroke-width="1.5" stroke-linecap="round" stroke-linejoin="round"/>
<defs>
<linearGradient id="paint0_linear_19_1800" x1="26" y1="0" x2="26" y2="52" gradientUnits="userSpaceOnUse">
<stop stop-color="#8EA7FF" stop-opacity="0.45"/>
<stop offset="1" stop-color="#8EA7FF" stop-opacity="0.2"/>
</linearGradient>
</defs>
</svg>
