<svg width="52" height="52" viewBox="0 0 52 52" fill="none" xmlns="http://www.w3.org/2000/svg">
<rect x="0.5" y="0.5" width="51" height="51" rx="7.5" fill="#8EA7FF" fill-opacity="0.2"/>
<rect x="0.5" y="0.5" width="51" height="51" rx="7.5" stroke="url(#paint0_linear_19_1866)"/>
<path d="M36 26C36 31.5228 31.5228 36 26 36C20.4771 36 16 31.5228 16 26C16 20.4771 20.4771 16 26 16C31.5228 16 36 20.4771 36 26Z" stroke="#567BFF" stroke-width="1.5"/>
<path d="M28.7102 24.0611C28.6111 23.2984 27.7354 22.0662 26.1608 22.0662C24.3312 22.0662 23.5614 23.0795 23.4051 23.5861C23.1614 24.2638 23.2102 25.6571 25.3547 25.809C28.0354 25.999 29.1093 26.3154 28.9727 27.956C28.836 29.5965 27.3417 29.951 26.1608 29.9129C24.9798 29.875 23.0476 29.3325 22.9727 27.8733M25.9734 20.998V22.0698M25.9734 29.9031V30.998" stroke="#567BFF" stroke-width="1.5" stroke-linecap="round"/>
<defs>
<linearGradient id="paint0_linear_19_1866" x1="26" y1="0" x2="26" y2="52" gradientUnits="userSpaceOnUse">
<stop stop-color="#8EA7FF" stop-opacity="0.45"/>
<stop offset="1" stop-color="#8EA7FF" stop-opacity="0.2"/>
</linearGradient>
</defs>
</svg>
