<svg width="52" height="52" viewBox="0 0 52 52" fill="none" xmlns="http://www.w3.org/2000/svg">
<rect x="0.5" y="0.5" width="51" height="51" rx="7.5" fill="#8EA7FF" fill-opacity="0.2"/>
<rect x="0.5" y="0.5" width="51" height="51" rx="7.5" stroke="url(#paint0_linear_18_1546)"/>
<path d="M22 30L30.7201 29.2733C33.4486 29.046 34.0611 28.45 34.3635 25.7289L35 20" stroke="#567BFF" stroke-width="1.5" stroke-linecap="round"/>
<path d="M20 20H36" stroke="#567BFF" stroke-width="1.5" stroke-linecap="round"/>
<path d="M20 36C21.1046 36 22 35.1046 22 34C22 32.8954 21.1046 32 20 32C18.8954 32 18 32.8954 18 34C18 35.1046 18.8954 36 20 36Z" stroke="#567BFF" stroke-width="1.5"/>
<path d="M31 36C32.1046 36 33 35.1046 33 34C33 32.8954 32.1046 32 31 32C29.8954 32 29 32.8954 29 34C29 35.1046 29.8954 36 31 36Z" stroke="#567BFF" stroke-width="1.5"/>
<path d="M22 34H29" stroke="#567BFF" stroke-width="1.5" stroke-linecap="round"/>
<path d="M16 16H16.966C17.9107 16 18.7341 16.6246 18.9633 17.5149L21.9385 29.0765C22.0889 29.6608 21.9602 30.2797 21.5882 30.7616L20.6321 32" stroke="#567BFF" stroke-width="1.5" stroke-linecap="round"/>
<defs>
<linearGradient id="paint0_linear_18_1546" x1="26" y1="0" x2="26" y2="52" gradientUnits="userSpaceOnUse">
<stop stop-color="#8EA7FF" stop-opacity="0.45"/>
<stop offset="1" stop-color="#8EA7FF" stop-opacity="0.2"/>
</linearGradient>
</defs>
</svg>
