<svg width="52" height="52" viewBox="0 0 52 52" fill="none" xmlns="http://www.w3.org/2000/svg">
<rect x="0.5" y="0.5" width="51" height="51" rx="7.5" fill="#8EA7FF" fill-opacity="0.2"/>
<rect x="0.5" y="0.5" width="51" height="51" rx="7.5" stroke="url(#paint0_linear_19_1877)"/>
<path d="M36 26C36 31.5228 31.5228 36 26 36C20.4771 36 16 31.5228 16 26C16 20.4771 20.4771 16 26 16C31.5228 16 36 20.4771 36 26Z" stroke="#5A5A5A" stroke-width="1.5"/>
<path d="M28.7102 24.0611C28.6111 23.2984 27.7354 22.0662 26.1608 22.0662C24.3312 22.0662 23.5614 23.0795 23.4051 23.5861C23.1614 24.2638 23.2102 25.6571 25.3547 25.809C28.0354 25.999 29.1093 26.3154 28.9727 27.956C28.836 29.5965 27.3417 29.951 26.1608 29.9129C24.9798 29.875 23.0476 29.3325 22.9727 27.8733M25.9734 20.998V22.0698M25.9734 29.9031V30.998" stroke="#5A5A5A" stroke-width="1.5" stroke-linecap="round"/>
<path d="M28.8293 32C28.9398 32.3128 29 32.6494 29 33C29 34.6569 27.6569 36 26 36C24.3431 36 23 34.6569 23 33C23 32.6494 23.0601 32.3128 23.1707 32" stroke="#567BFF" stroke-width="1.5"/>
<path d="M25.2361 27C25.7111 27.5308 26 28.2316 26 29C26 30.6569 24.6569 32 23 32C21.3432 32 20 30.6569 20 29C20 28.2316 20.2888 27.5308 20.7639 27" stroke="#567BFF" stroke-width="1.5"/>
<path d="M31.2361 27C31.7111 27.5308 32 28.2316 32 29C32 30.6569 30.6569 32 29 32C27.3431 32 26 30.6569 26 29C26 28.2316 26.2889 27.5308 26.7639 27" stroke="#567BFF" stroke-width="1.5"/>
<path d="M29 24C29 25.6569 30.3431 27 32 27C33.6569 27 35 25.6569 35 24C35 22.3432 33.6569 21 32 21C30.3431 21 29 22.3432 29 24Z" stroke="#567BFF" stroke-width="1.5"/>
<path d="M23 24C23 25.6569 24.3431 27 26 27C27.6569 27 29 25.6569 29 24C29 22.3432 27.6569 21 26 21C24.3431 21 23 22.3432 23 24Z" stroke="#567BFF" stroke-width="1.5"/>
<path d="M17 24C17 25.6569 18.3432 27 20 27C21.6568 27 23 25.6569 23 24C23 22.3432 21.6568 21 20 21C18.3432 21 17 22.3432 17 24Z" stroke="#567BFF" stroke-width="1.5"/>
<path d="M26 21C26 19.3333 26.8 16 30 16" stroke="#567BFF" stroke-width="1.5" stroke-linecap="round" stroke-linejoin="round"/>
<defs>
<linearGradient id="paint0_linear_19_1877" x1="26" y1="0" x2="26" y2="52" gradientUnits="userSpaceOnUse">
<stop stop-color="#8EA7FF" stop-opacity="0.45"/>
<stop offset="1" stop-color="#8EA7FF" stop-opacity="0.2"/>
</linearGradient>
</defs>
</svg>
