<svg width="40" height="40" viewBox="0 0 40 40" fill="none" xmlns="http://www.w3.org/2000/svg">
<g clip-path="url(#clip0_31_73)">
<path opacity="0.985" fill-rule="evenodd" clip-rule="evenodd" d="M19.4922 -0.0390625C19.8047 -0.0390625 20.1172 -0.0390625 20.4297 -0.0390625C22.1193 1.61245 23.5647 3.46141 24.7656 5.50781C26.1938 8.25156 27.0141 11.1682 27.2265 14.2578C30.8688 15.8384 32.3662 18.5988 31.7187 22.5391C31.4228 23.7177 30.8368 24.7202 29.9609 25.5469C29.5703 25.7031 29.1797 25.7031 28.789 25.5469C27.7629 24.6512 26.7604 23.7266 25.7812 22.7734C25.163 24.3746 24.3818 25.885 23.4375 27.3047C22.5504 28.243 21.4567 28.6597 20.1562 28.5547C18.9461 28.5876 17.8393 28.2751 16.8359 27.6172C16.4009 27.1378 16.0233 26.617 15.7031 26.0547C15.1409 24.9823 14.62 23.8886 14.1406 22.7734C13.1614 23.7266 12.1589 24.6512 11.1328 25.5469C10.7422 25.7031 10.3515 25.7031 9.9609 25.5469C8.21707 23.7253 7.63117 21.5769 8.20309 19.1016C8.90457 16.7466 10.4019 15.132 12.6953 14.2578C13.1035 8.57289 15.3691 3.80724 19.4922 -0.0390625ZM19.414 9.25781C21.6541 9.16836 23.0213 10.2101 23.5156 12.3828C23.595 14.4496 22.6445 15.7908 20.664 16.4063C18.8202 16.6238 17.479 15.9076 16.6406 14.2578C15.9854 12.1475 16.6234 10.572 18.5547 9.53125C18.8541 9.45047 19.1405 9.35938 19.414 9.25781Z" fill="white"/>
<path opacity="0.957" fill-rule="evenodd" clip-rule="evenodd" d="M15.3516 29.1797C16.0807 29.1797 16.8099 29.1797 17.5391 29.1797C17.5391 30.612 17.5391 32.0443 17.5391 33.4766C16.8099 33.4766 16.0807 33.4766 15.3516 33.4766C15.3516 32.0443 15.3516 30.612 15.3516 29.1797Z" fill="white"/>
<path opacity="0.958" fill-rule="evenodd" clip-rule="evenodd" d="M22.3828 29.1797C23.112 29.1797 23.8412 29.1797 24.5703 29.1797C24.5703 30.7422 24.5703 32.3047 24.5703 33.8672C23.8412 33.8672 23.112 33.8672 22.3828 33.8672C22.3828 32.3047 22.3828 30.7422 22.3828 29.1797Z" fill="white"/>
<path opacity="0.967" fill-rule="evenodd" clip-rule="evenodd" d="M18.8672 30.0391C19.5963 30.0391 20.3255 30.0391 21.0547 30.0391C21.0547 31.7318 21.0547 33.4245 21.0547 35.1172C20.3255 35.1172 19.5963 35.1172 18.8672 35.1172C18.8672 33.4245 18.8672 31.7318 18.8672 30.0391Z" fill="white"/>
<path opacity="0.986" fill-rule="evenodd" clip-rule="evenodd" d="M38.7109 39.961C26.2109 39.961 13.7109 39.961 1.21093 39.961C0.516113 39.5555 0.346842 38.9826 0.703113 38.2423C0.867214 38.0105 1.08857 37.8673 1.36718 37.8126C1.76037 37.7992 2.151 37.7601 2.53905 37.6954C3.47156 35.3198 5.21636 34.2391 7.77343 34.4532C9.36757 32.842 11.1905 32.5295 13.2422 33.5157C14.1253 34.06 14.7503 34.8152 15.1172 35.7813C16.5834 35.8499 17.7032 36.501 18.4765 37.7344C19.8835 37.7995 21.2898 37.7865 22.6953 37.6954C23.4944 36.6258 24.5621 35.9877 25.8984 35.7813C27.4444 32.9914 29.736 32.1059 32.7734 33.1251C34.6465 34.1015 35.6101 35.651 35.6641 37.7735C36.628 37.7605 37.5915 37.7735 38.5547 37.8126C39.375 38.1635 39.5964 38.7494 39.2187 39.5704C39.0652 39.7305 38.8959 39.8608 38.7109 39.961Z" fill="white"/>
</g>
<defs>
<clipPath id="clip0_31_73">
<rect width="40" height="40" fill="white"/>
</clipPath>
</defs>
</svg>
