<svg width="29" height="29" viewBox="0 0 29 29" fill="none" xmlns="http://www.w3.org/2000/svg">
<path opacity="0.984" fill-rule="evenodd" clip-rule="evenodd" d="M16.7149 3.50537C17.8452 3.49626 18.9754 3.50537 20.1055 3.53271C20.3746 3.56906 20.5113 3.72401 20.5156 3.99756C20.5521 5.12777 20.5521 6.25796 20.5156 7.38818C20.5039 7.60354 20.4037 7.75853 20.2149 7.85303C19.229 7.86035 18.2446 7.89678 17.2617 7.9624C16.8656 8.05274 16.6378 8.29884 16.5781 8.70068C16.5508 9.64842 16.5417 10.5963 16.5508 11.5444C17.7771 11.5182 18.9985 11.5456 20.2149 11.6265C20.3445 11.7727 20.4083 11.9459 20.4063 12.146C20.4427 13.2944 20.4427 14.4429 20.4063 15.5913C20.4393 15.9729 20.2661 16.1643 19.8867 16.1655C18.7749 16.1929 17.6629 16.202 16.5508 16.1929C16.5599 19.3101 16.5508 22.4273 16.5235 25.5444C16.5019 25.73 16.4017 25.8485 16.2227 25.8999C14.8373 25.9364 13.4518 25.9364 12.0664 25.8999C11.8814 25.8244 11.7812 25.6877 11.7656 25.4897C11.7383 22.3908 11.7292 19.2919 11.7383 16.1929C10.6773 16.2182 9.61997 16.1908 8.56642 16.1108C8.49024 16.0468 8.44463 15.9648 8.4297 15.8647C8.39322 14.534 8.39322 13.2033 8.4297 11.8726C8.45513 11.7943 8.50074 11.7305 8.56642 11.6812C9.61866 11.6005 10.6759 11.5731 11.7383 11.5991C11.7194 10.4311 11.7467 9.26446 11.8203 8.09912C12.2641 5.29455 13.8956 3.7633 16.7149 3.50537Z" fill="#1C1C1C"/>
</svg>
