<svg width="29" height="28" viewBox="0 0 29 28" fill="none" xmlns="http://www.w3.org/2000/svg">
<g clip-path="url(#clip0_45_333)">
<path opacity="0.997" fill-rule="evenodd" clip-rule="evenodd" d="M9.05859 -0.0273438C10.8815 -0.0273438 12.7044 -0.0273438 14.5273 -0.0273438C14.5273 3.07162 14.5273 6.17055 14.5273 9.26953C12.8409 9.25143 11.1638 9.26964 9.49609 9.32422C9.38672 9.32422 9.27734 9.32422 9.16797 9.32422C6.65098 8.78456 5.28379 7.22597 5.06641 4.64844C5.14422 2.7597 6.00096 1.35605 7.63672 0.4375C8.10107 0.23103 8.57499 0.0760818 9.05859 -0.0273438Z" fill="#FF4D12"/>
<path opacity="0.995" fill-rule="evenodd" clip-rule="evenodd" d="M14.5273 -0.0273438C16.2956 -0.0273438 18.0638 -0.0273438 19.832 -0.0273438C22.2864 0.559338 23.6171 2.11793 23.8242 4.64844C23.5997 7.25129 22.2143 8.80988 19.668 9.32422C19.2305 9.32422 18.793 9.32422 18.3555 9.32422C17.0794 9.32422 15.8034 9.32422 14.5273 9.32422C12.8502 9.32422 11.1732 9.32422 9.49609 9.32422C11.1638 9.26964 12.8409 9.25143 14.5273 9.26953C14.5273 6.17055 14.5273 3.07162 14.5273 -0.0273438Z" fill="#FE7261"/>
<path opacity="0.997" fill-rule="evenodd" clip-rule="evenodd" d="M9.16797 9.32422C9.27734 9.32422 9.38672 9.32422 9.49609 9.32422C11.1732 9.32422 12.8502 9.32422 14.5273 9.32422C14.5273 10.582 14.5273 11.8398 14.5273 13.0977C14.5273 13.681 14.5273 14.2643 14.5273 14.8477C14.5273 16.1055 14.5273 17.3633 14.5273 18.6211C12.7773 18.6211 11.0273 18.6211 9.27734 18.6211C6.7026 18.1424 5.31716 16.5929 5.12109 13.9727C5.31578 11.4119 6.66476 9.86245 9.16797 9.32422Z" fill="#B559FF"/>
<path opacity="0.992" fill-rule="evenodd" clip-rule="evenodd" d="M18.3555 9.32422C18.793 9.32422 19.2305 9.32422 19.668 9.32422C21.4873 9.5486 22.7725 10.4966 23.5234 12.168C24.3065 14.5766 23.6775 16.518 21.6367 17.9922C19.7313 18.9993 17.9084 18.8717 16.168 17.6094C15.3179 16.8658 14.771 15.9453 14.5273 14.8477C14.5273 14.2643 14.5273 13.681 14.5273 13.0977C15.0438 11.0681 16.3199 9.81034 18.3555 9.32422Z" fill="#00BCFF"/>
<path opacity="0.996" fill-rule="evenodd" clip-rule="evenodd" d="M9.27734 18.6211C11.0273 18.6211 12.7773 18.6211 14.5273 18.6211C14.5365 20.3712 14.5273 22.1212 14.5 23.8711C14.0979 26.105 12.7946 27.4722 10.5898 27.9727C10.0977 27.9727 9.60547 27.9727 9.11328 27.9727C6.65874 27.3857 5.32799 25.8272 5.12109 23.2969C5.34562 20.694 6.73104 19.1354 9.27734 18.6211Z" fill="#01CE7F"/>
</g>
<defs>
<clipPath id="clip0_45_333">
<rect width="28" height="28" fill="white" transform="translate(0.5)"/>
</clipPath>
</defs>
</svg>
