<svg width="30" height="30" viewBox="0 0 30 30" fill="none" xmlns="http://www.w3.org/2000/svg">
<path opacity="0.995" fill-rule="evenodd" clip-rule="evenodd" d="M14.9707 2.43164C14.9707 5.22461 14.9707 8.01756 14.9707 10.8105C13.3496 10.8105 11.7285 10.8105 10.1074 10.8105C7.92744 10.273 6.75557 8.87654 6.5918 6.62109C6.72451 4.57759 7.75969 3.22994 9.69727 2.57812C9.92982 2.52816 10.1642 2.4891 10.4004 2.46094C11.9237 2.43164 13.4471 2.42188 14.9707 2.43164Z" fill="#777C94"/>
<path opacity="0.997" fill-rule="evenodd" clip-rule="evenodd" d="M14.9707 2.43164C16.4943 2.42188 18.0177 2.43164 19.541 2.46094C21.3344 2.69179 22.5356 3.65859 23.1445 5.36133C23.6046 7.10566 23.1847 8.5998 21.8848 9.84375C21.2718 10.3262 20.5881 10.6484 19.834 10.8105C19.3457 10.8105 18.8574 10.8105 18.3691 10.8105C17.2363 10.8105 16.1035 10.8105 14.9707 10.8105C14.9707 8.01756 14.9707 5.22461 14.9707 2.43164Z" fill="#48516F"/>
<path opacity="0.997" fill-rule="evenodd" clip-rule="evenodd" d="M10.1074 10.8105C11.7285 10.8105 13.3496 10.8105 14.9707 10.8105C14.9707 11.9629 14.9707 13.1152 14.9707 14.2676C14.9707 14.7363 14.9707 15.2051 14.9707 15.6738C14.9707 16.8262 14.9707 17.9785 14.9707 19.1309C13.3496 19.1309 11.7285 19.1309 10.1074 19.1309C7.90764 18.6007 6.73576 17.2042 6.5918 14.9414C6.76324 12.7096 7.93512 11.3327 10.1074 10.8105Z" fill="#A4A9B6"/>
<path opacity="0.991" fill-rule="evenodd" clip-rule="evenodd" d="M18.3691 10.8105C18.8574 10.8105 19.3457 10.8105 19.834 10.8105C22.0199 11.3367 23.1918 12.7233 23.3496 14.9707C23.2936 16.4798 22.6491 17.6614 21.416 18.5156C19.3968 19.5823 17.5706 19.3186 15.9375 17.7246C15.4551 17.1116 15.1328 16.428 14.9707 15.6738C14.9707 15.2051 14.9707 14.7363 14.9707 14.2676C15.3936 12.4189 16.5264 11.2665 18.3691 10.8105Z" fill="#1C264B"/>
<path opacity="0.997" fill-rule="evenodd" clip-rule="evenodd" d="M10.1077 19.1309C11.7288 19.1309 13.3498 19.1309 14.9709 19.1309C14.9807 20.7521 14.9709 22.3731 14.9416 23.9941C14.4319 26.203 13.0453 27.3749 10.7815 27.5098C8.59916 27.3585 7.23193 26.2257 6.67992 24.1113C6.41871 22.2223 7.07302 20.7476 8.64281 19.6875C9.11244 19.4323 9.6007 19.2468 10.1077 19.1309Z" fill="#D2D3DB"/>
</svg>
