<svg width="25" height="24" viewBox="0 0 25 24" fill="none" xmlns="http://www.w3.org/2000/svg">
<path fill-rule="evenodd" clip-rule="evenodd" d="M11.762 22.134C11.762 22.134 4.5 16.018 4.5 10C4.5 7.87827 5.34285 5.84344 6.84315 4.34315C8.34344 2.84285 10.3783 2 12.5 2C14.6217 2 16.6566 2.84285 18.1569 4.34315C19.6571 5.84344 20.5 7.87827 20.5 10C20.5 16.018 13.238 22.134 13.238 22.134C12.834 22.506 12.169 22.502 11.762 22.134ZM12.5 13.5C12.9596 13.5 13.4148 13.4095 13.8394 13.2336C14.264 13.0577 14.6499 12.7999 14.9749 12.4749C15.2999 12.1499 15.5577 11.764 15.7336 11.3394C15.9095 10.9148 16 10.4596 16 10C16 9.54037 15.9095 9.08525 15.7336 8.66061C15.5577 8.23597 15.2999 7.85013 14.9749 7.52513C14.6499 7.20012 14.264 6.94231 13.8394 6.76642C13.4148 6.59053 12.9596 6.5 12.5 6.5C11.5717 6.5 10.6815 6.86875 10.0251 7.52513C9.36875 8.1815 9 9.07174 9 10C9 10.9283 9.36875 11.8185 10.0251 12.4749C10.6815 13.1313 11.5717 13.5 12.5 13.5Z" fill="white"/>
</svg>
