<svg width="29" height="29" viewBox="0 0 29 29" fill="none" xmlns="http://www.w3.org/2000/svg">
<path opacity="0.977" fill-rule="evenodd" clip-rule="evenodd" d="M5.44904 3.50559C7.16901 3.37687 8.23542 4.1425 8.64825 5.80247C8.75965 7.4216 8.03964 8.45159 6.4881 8.89231C4.79216 9.05484 3.72576 8.31656 3.28888 6.67747C3.15868 5.03184 3.87873 3.97455 5.44904 3.50559Z" fill="#1C1C1C"/>
<path opacity="0.987" fill-rule="evenodd" clip-rule="evenodd" d="M19.668 10.5603C20.9561 10.4893 22.1774 10.7354 23.332 11.2985C24.2051 11.8622 24.8158 12.637 25.1641 13.6228C25.4519 14.4929 25.6159 15.3862 25.6562 16.3024C25.6836 19.5107 25.6927 22.719 25.6836 25.9274C24.1159 25.9274 22.5482 25.9274 20.9805 25.9274C20.9896 23.029 20.9805 20.1305 20.9531 17.2321C20.7851 15.1858 19.7005 14.3746 17.6992 14.7985C16.7736 15.1229 16.2176 15.7701 16.0312 16.7399C15.9814 16.9748 15.9449 17.2118 15.9219 17.4509C15.8945 20.2764 15.8854 23.1019 15.8945 25.9274C14.3268 25.9274 12.7591 25.9274 11.1914 25.9274C11.1914 20.9327 11.1914 15.9378 11.1914 10.9431C12.6862 10.9431 14.181 10.9431 15.6758 10.9431C15.6666 11.6178 15.6758 12.2923 15.7031 12.9665C16.3751 11.8402 17.3503 11.1019 18.6289 10.7517C18.981 10.6756 19.3274 10.6118 19.668 10.5603Z" fill="#1C1C1C"/>
<path opacity="0.986" fill-rule="evenodd" clip-rule="evenodd" d="M3.58984 10.9429C5.15755 10.9429 6.72524 10.9429 8.29297 10.9429C8.29297 15.9376 8.29297 20.9325 8.29297 25.9272C6.72524 25.9272 5.15755 25.9272 3.58984 25.9272C3.58984 20.9325 3.58984 15.9376 3.58984 10.9429Z" fill="#1C1C1C"/>
</svg>
