<svg width="29" height="29" viewBox="0 0 29 29" fill="none" xmlns="http://www.w3.org/2000/svg">
<g clip-path="url(#clip0_56_514)">
<path opacity="0.978" fill-rule="evenodd" clip-rule="evenodd" d="M9.76953 0.716309C12.9232 0.716309 16.0768 0.716309 19.2305 0.716309C25.3913 0.715652 28.472 3.79638 28.4727 9.9585C28.4727 13.1486 28.4727 16.3387 28.4727 19.5288C28.4177 25.5994 25.3552 28.6619 19.2852 28.7163C15.8763 28.7163 12.4674 28.7163 9.05859 28.7163C3.5379 28.4456 0.67592 25.5472 0.472656 20.021C0.472656 16.4298 0.472656 12.8387 0.472656 9.24756C0.540453 7.86068 0.823005 6.51176 1.32031 5.20068C2.54242 2.70603 4.53852 1.27504 7.30859 0.907715C8.13525 0.815956 8.95556 0.752154 9.76953 0.716309ZM10.0977 3.23193C12.924 3.25701 15.7494 3.26613 18.5742 3.25928C19.8731 3.25302 21.1491 3.41708 22.4023 3.75147C24.0673 4.26798 25.1155 5.37085 25.5469 7.06006C25.694 7.63461 25.7852 8.2179 25.8203 8.81006C25.88 10.7964 25.9074 12.7833 25.9023 14.771C25.9082 16.6859 25.8809 18.5999 25.8203 20.5132C25.6467 24.041 23.7964 25.8912 20.2695 26.064C18.3836 26.1242 16.4969 26.1515 14.6094 26.146C12.6855 26.1511 10.7623 26.1237 8.83984 26.064C5.07594 25.9459 3.13453 24.0045 3.01562 20.2397C2.98828 19.5288 2.96094 18.8179 2.93359 18.1069C2.97592 15.2087 3.00326 12.3103 3.01562 9.41162C3.05231 8.2803 3.27106 7.18655 3.67188 6.13037C4.25918 4.84738 5.23443 4.01796 6.59766 3.64209C7.75621 3.36876 8.92286 3.23204 10.0977 3.23193Z" fill="#1C1C1C"/>
<path opacity="0.962" fill-rule="evenodd" clip-rule="evenodd" d="M21.6913 5.52868C22.8682 5.51174 23.5244 6.08596 23.6601 7.25134C23.5653 8.28493 23.0001 8.85915 21.9648 8.974C20.5917 8.75902 20.0539 7.97518 20.3515 6.62243C20.6186 6.02973 21.0652 5.66514 21.6913 5.52868Z" fill="#1C1C1C"/>
<path opacity="0.975" fill-rule="evenodd" clip-rule="evenodd" d="M13.8711 7.49732C17.2349 7.41037 19.6503 8.86872 21.1172 11.8723C22.1555 14.6104 21.7727 17.126 19.9688 19.4192C17.5745 21.9034 14.7581 22.5323 11.5195 21.3059C8.80528 19.9445 7.38341 17.7387 7.25391 14.6887C7.35902 11.9622 8.56214 9.88405 10.8633 8.45435C11.8081 7.92968 12.8106 7.61069 13.8711 7.49732ZM14.0352 10.0676C12.2279 10.334 10.9427 11.3001 10.1797 12.9661C9.47909 15.0035 9.90745 16.7626 11.4648 18.2434C13.3272 19.6418 15.2412 19.7147 17.207 18.4622C18.7619 17.207 19.3543 15.5937 18.9844 13.6223C18.2023 11.2389 16.5525 10.0541 14.0352 10.0676Z" fill="#1C1C1C"/>
</g>
<defs>
<clipPath id="clip0_56_514">
<rect width="28" height="28" fill="white" transform="translate(0.5 0.743652)"/>
</clipPath>
</defs>
</svg>
