<svg width="26" height="26" viewBox="0 0 26 26" fill="none" xmlns="http://www.w3.org/2000/svg">
<g clip-path="url(#clip0_252_168)">
<path opacity="0.973" fill-rule="evenodd" clip-rule="evenodd" d="M20.5377 1.18367C21.0008 1.13978 21.2036 1.35158 21.1462 1.81907C21.2418 3.6606 21.3061 5.50325 21.3392 7.34695C21.2013 7.57695 21.008 7.63844 20.7594 7.53136C20.3182 7.21061 19.8771 6.8899 19.4359 6.56915C17.0947 9.78885 14.1239 12.2456 10.5237 13.9394C8.61656 14.8125 6.61689 15.3044 4.52464 15.4152C4.24494 15.2857 4.16731 15.0774 4.29174 14.7902C7.34208 14.1028 10.0382 12.7344 12.38 10.6851C14.245 8.99401 15.7718 7.04893 16.9604 4.84981C16.3148 4.41252 15.6814 3.95779 15.06 3.48561C14.9376 3.26363 14.9698 3.06707 15.1567 2.89594C16.9601 2.33707 18.7538 1.76631 20.5377 1.18367Z" fill="white"/>
<path opacity="0.988" fill-rule="evenodd" clip-rule="evenodd" d="M25.3403 23.2014C25.3452 23.342 25.3501 23.4825 25.355 23.6231C25.2865 23.6881 25.2103 23.7455 25.1265 23.7952C17.2887 24.1002 9.44967 24.3739 1.60963 24.6164C1.52259 24.5727 1.44261 24.5208 1.36967 24.4607C1.36476 24.3201 1.35985 24.1796 1.35495 24.039C1.42351 23.974 1.49968 23.9166 1.58345 23.8669C2.17582 23.8228 2.76893 23.7942 3.3628 23.7813C3.30264 22.2824 3.2581 20.783 3.22917 19.2832C3.26358 19.1492 3.34647 19.0602 3.47783 19.0166C4.72598 18.9417 5.9752 18.8981 7.22555 18.8857C7.3105 18.9196 7.38268 18.9717 7.44208 19.0423C7.51894 20.5717 7.58021 22.1018 7.62583 23.6324C7.95375 23.621 8.28168 23.6095 8.6096 23.5981C8.51453 21.0998 8.4351 18.6011 8.37128 16.1018C8.42562 16.0273 8.49398 15.9702 8.57636 15.9305C9.84012 15.8551 11.105 15.8109 12.3709 15.798C12.4738 15.8335 12.5465 15.9013 12.5891 16.0014C12.6992 18.4834 12.7937 20.966 12.8726 23.4492C13.185 23.4383 13.4972 23.4274 13.8096 23.4165C13.6812 19.9657 13.5685 16.5144 13.4714 13.0626C13.5069 12.9597 13.5747 12.887 13.6749 12.8444C14.9543 12.7685 16.2348 12.7238 17.5163 12.7103C17.5729 12.7631 17.6294 12.8158 17.686 12.8685C17.8305 16.3343 17.9593 19.8007 18.0726 23.2676C18.4005 23.2562 18.7284 23.2447 19.0564 23.2333C18.8937 18.7987 18.7466 14.3637 18.6152 9.92807C18.6356 9.84138 18.6884 9.7848 18.7734 9.75838C20.0528 9.68242 21.3333 9.6377 22.6148 9.62423C22.7177 9.65971 22.7904 9.72753 22.833 9.82768C23.0107 14.246 23.1729 18.6649 23.3194 23.0844C23.9127 23.0559 24.5064 23.043 25.1004 23.0457C25.1874 23.0894 25.2674 23.1413 25.3403 23.2014Z" fill="white"/>
</g>
<defs>
<clipPath id="clip0_252_168">
<rect width="24" height="24" fill="white" transform="translate(0.584106 1.29419) rotate(-2)"/>
</clipPath>
</defs>
</svg>
