<svg width="20" height="20" viewBox="0 0 20 20" fill="none" xmlns="http://www.w3.org/2000/svg">
<path d="M16.625 17.5C14.8889 17.5 13.1703 17.125 11.4692 16.375C9.76805 15.625 8.22278 14.5556 6.83333 13.1667C5.44389 11.7778 4.37444 10.2361 3.625 8.54167C2.87556 6.84722 2.50056 5.125 2.5 3.375V2.5H7.41667L8.1875 6.6875L5.8125 9.08333C6.11806 9.625 6.45833 10.1389 6.83333 10.625C7.20833 11.1111 7.61111 11.5625 8.04167 11.9792C8.44444 12.3819 8.88556 12.7675 9.365 13.1358C9.84444 13.5042 10.3617 13.8478 10.9167 14.1667L13.3333 11.75L17.5 12.6042V17.5H16.625Z" fill="white"/>
</svg>
