<svg width="33" height="33" viewBox="0 0 33 33" fill="none" xmlns="http://www.w3.org/2000/svg">
<rect x="0.5" y="0.5" width="32" height="32" rx="16" fill="#161616"/>
<path d="M9.43182 15.088C9.10844 14.193 8.94675 13.7455 9.0157 13.4587C9.09111 13.1451 9.31416 12.9005 9.59927 12.819C9.85994 12.7444 10.2654 12.9246 11.0764 13.2851C11.7938 13.6039 12.1524 13.7633 12.4894 13.7544C12.8605 13.7447 13.2174 13.5959 13.5013 13.3326C13.7592 13.0935 13.9322 12.7124 14.2781 11.9504L15.0405 10.2709C15.6773 8.86796 15.9957 8.1665 16.5 8.1665C17.0042 8.1665 17.3227 8.86796 17.9595 10.2709L18.7219 11.9504C19.0678 12.7124 19.2408 13.0935 19.4987 13.3326C19.7826 13.5959 20.1395 13.7447 20.5106 13.7544C20.8476 13.7633 21.2062 13.6039 21.9236 13.2851C22.7346 12.9246 23.1401 12.7444 23.4007 12.819C23.6858 12.9005 23.9089 13.1451 23.9843 13.4587C24.0532 13.7455 23.8916 14.193 23.5682 15.0879L22.1782 18.935C21.5835 20.5807 21.2862 21.4035 20.664 21.8683C20.0418 22.3332 19.2378 22.3332 17.6298 22.3332H15.3702C13.7622 22.3332 12.9581 22.3332 12.336 21.8683C11.7138 21.4035 11.4165 20.5807 10.8218 18.935L9.43182 15.088Z" fill="white"/>
<path d="M16.5 18.1665H16.5075" stroke="#161616" stroke-width="2" stroke-linecap="round" stroke-linejoin="round"/>
<path d="M12.3335 24.8335H20.6668" stroke="white" stroke-width="1.5" stroke-linecap="round"/>
</svg>
