<svg width="14" height="15" viewBox="0 0 14 15" fill="none" xmlns="http://www.w3.org/2000/svg">
<path d="M11.6448 2.88384C11.634 2.80826 11.5689 2.76505 11.5147 2.76505C11.4605 2.76505 10.3871 2.74347 10.3871 2.74347C10.3871 2.74347 9.48717 1.87958 9.40044 1.78239C9.31369 1.696 9.14022 1.7176 9.07516 1.7392C9.07516 1.7392 8.90168 1.79319 8.61978 1.87958C8.57641 1.7284 8.50051 1.54482 8.40293 1.35045C8.08849 0.745726 7.61142 0.42177 7.04762 0.42177C7.00425 0.42177 6.97172 0.42177 6.92835 0.432566C6.90666 0.410971 6.89582 0.389372 6.87414 0.378576C6.62476 0.119408 6.31033 -0.010175 5.93084 0.000623614C5.20439 0.0222209 4.47795 0.551352 3.88161 1.48003C3.4696 2.13875 3.15516 2.95945 3.05758 3.59655C2.22271 3.85573 1.63722 4.03931 1.61553 4.03931C1.19267 4.16889 1.18183 4.17968 1.12762 4.57924C1.10593 4.8816 0 13.4017 0 13.4017L9.28117 14.9999L13.3037 14.0064C13.2929 14.0064 11.6557 2.95945 11.6448 2.88384ZM8.15355 2.03076C7.9367 2.09555 7.69817 2.17114 7.43795 2.25753C7.43795 1.89038 7.38373 1.37204 7.2211 0.940103C7.77406 1.02649 8.04513 1.65281 8.15355 2.03076ZM6.95003 2.3979C6.46212 2.5491 5.93084 2.71108 5.39956 2.87305C5.55135 2.30073 5.83326 1.7392 6.18022 1.36125C6.31033 1.22086 6.49465 1.06968 6.70066 0.983296C6.91751 1.40444 6.96088 1.99836 6.95003 2.3979ZM5.95252 0.48656C6.126 0.48656 6.26696 0.518957 6.38622 0.605345C6.19106 0.702532 5.99589 0.853712 5.82242 1.04809C5.35619 1.54482 4.99839 2.31152 4.85743 3.05662C4.41289 3.19702 3.97919 3.3266 3.58886 3.44538C3.84908 2.26833 4.83575 0.518957 5.95252 0.48656Z" fill="#95BF47"/>
<path d="M11.5148 2.76518C11.4606 2.76518 10.3872 2.74359 10.3872 2.74359C10.3872 2.74359 9.48726 1.8797 9.40052 1.78251C9.36799 1.75011 9.32462 1.72852 9.28125 1.72852V15L13.3038 14.0065C13.3038 14.0065 11.6666 2.95955 11.6558 2.88396C11.6341 2.80838 11.569 2.76518 11.5148 2.76518Z" fill="#5E8E3E"/>
<path d="M7.0477 4.82821L6.58147 6.56679C6.58147 6.56679 6.06103 6.32922 5.44301 6.3724C4.53224 6.42639 4.53224 6.99873 4.53224 7.13911C4.58645 7.91661 6.63568 8.08939 6.75495 9.91434C6.84169 11.3506 5.99598 12.3332 4.75993 12.4088C3.28535 12.4844 2.47217 11.6205 2.47217 11.6205L2.7866 10.2923C2.7866 10.2923 3.61063 10.9078 4.26118 10.8646C4.68403 10.843 4.84667 10.4867 4.82499 10.2491C4.75993 9.23404 3.09019 9.29883 2.98176 7.62504C2.89502 6.22123 3.81664 4.8066 5.85502 4.67702C6.64652 4.62303 7.0477 4.82821 7.0477 4.82821Z" fill="white"/>
</svg>
