<svg width="25" height="25" viewBox="0 0 25 25" fill="none" xmlns="http://www.w3.org/2000/svg">
<g clip-path="url(#clip0_56_491)">
<path opacity="0.966" fill-rule="evenodd" clip-rule="evenodd" d="M0.710938 0.720215C3.07031 0.720215 5.4297 0.720215 7.78906 0.720215C9.77328 3.65703 11.7811 6.57889 13.8125 9.48584C16.3302 6.56993 18.838 3.64808 21.3359 0.720215C22.0547 0.720215 22.7735 0.720215 23.4922 0.720215C20.587 4.10992 17.6808 7.50054 14.7734 10.8921C17.9309 15.5023 21.0871 20.1117 24.2422 24.7202C21.8828 24.7202 19.5234 24.7202 17.1641 24.7202C15.0572 21.6209 12.9401 18.5271 10.8125 15.439C8.15422 18.5267 5.50578 21.6205 2.86719 24.7202C2.14844 24.7202 1.42969 24.7202 0.710938 24.7202C3.7486 21.159 6.79545 17.6043 9.85156 14.0562C6.81027 9.60621 3.76341 5.1609 0.710938 0.720215ZM3.61719 2.36084C4.65642 2.29857 5.70331 2.29857 6.75781 2.36084C11.5999 9.31845 16.4592 16.2638 21.3359 23.1968C20.2887 23.2358 19.2418 23.228 18.1953 23.1733C13.3349 16.2327 8.4755 9.29525 3.61719 2.36084Z" fill="#1C1C1C"/>
</g>
<defs>
<clipPath id="clip0_56_491">
<rect width="24" height="24" fill="white" transform="translate(0.5 0.743652)"/>
</clipPath>
</defs>
</svg>
